<?xml version="1.0" standalone="no"?>
<!DOCTYPE svg PUBLIC "-//W3C//DTD SVG 20010904//EN"
 "http://www.w3.org/TR/2001/REC-SVG-20010904/DTD/svg10.dtd">
<svg version="1.0" xmlns="http://www.w3.org/2000/svg"
 width="189.000000pt" height="179.000000pt" viewBox="0 0 189.000000 179.000000"
 preserveAspectRatio="xMidYMid meet">
<g transform="translate(0.000000,179.000000) scale(0.100000,-0.100000)"
fill="#ffffff" stroke="none">
<path d="M67 1731 c379 -320 429 -359 443 -351 28 16 315 263 318 274 1 6 -29
37 -68 69 l-70 57 -341 0 -341 0 59 -49z"/>
<path d="M899 1632 c-96 -81 -321 -269 -500 -419 -178 -149 -339 -284 -358
-300 l-33 -28 108 -86 c60 -48 169 -134 242 -193 91 -74 136 -104 146 -99 35
20 325 259 325 268 1 6 -12 19 -28 30 -15 11 -45 35 -66 53 -32 28 -35 36 -24
47 8 7 73 61 144 121 72 59 171 142 220 184 111 93 367 309 535 449 69 57 129
108 134 113 6 4 -143 8 -330 8 l-339 0 -176 -148z"/>
<path d="M1095 1155 c-88 -73 -161 -137 -162 -142 -1 -4 27 -32 63 -62 35 -29
64 -57 64 -61 0 -4 -39 -39 -87 -78 -49 -38 -129 -103 -178 -144 -50 -40 -183
-147 -294 -238 -112 -91 -258 -210 -325 -264 -67 -54 -129 -104 -138 -110 -10
-6 -18 -14 -18 -18 0 -5 151 -8 336 -8 l336 0 317 254 c671 538 736 591 740
600 3 10 -468 406 -484 406 -5 0 -82 -61 -170 -135z"/>
<path d="M1098 287 c-91 -73 -166 -135 -165 -139 1 -3 34 -31 72 -62 l70 -56
333 0 c184 0 332 4 330 9 -1 4 -55 50 -118 101 -236 190 -349 280 -352 280 -2
-1 -78 -60 -170 -133z"/>
</g>
</svg>
